<?xml version="1.0" encoding="UTF-8"?>
<svg version="1.1" xmlns="http://www.w3.org/2000/svg" width="2681" height="1583">
<path d="M0 0 C1.48395786 0.00222476 2.96791578 0.00440116 4.45187378 0.00653076 C27.12046564 0.05154414 49.60118142 0.56290161 72.125 3.3125 C72.936203 3.40960266 73.74740601 3.50670532 74.58319092 3.60675049 C166.05294822 14.61770664 253.65177995 43.76072357 332.125 92.3125 C329.125 93.3125 329.125 93.3125 327.02563477 92.53076172 C326.21408936 92.10553223 325.40254395 91.68030273 324.56640625 91.2421875 C323.63755615 90.76442871 322.70870605 90.28666992 321.75170898 89.79443359 C320.74052002 89.26414551 319.72933105 88.73385742 318.6875 88.1875 C305.00309196 81.18016628 291.11574661 74.68230455 277.125 68.3125 C276.16867676 67.87196289 275.21235352 67.43142578 274.22705078 66.97753906 C202.05952854 33.82473433 121.32051964 17.59399145 -173.71582031 52.71875 C-190.82216421 59.07885885 -207.4414955 66.3856655 -223.875 74.3125 C-225.02000977 74.86309082 -226.16501953 75.41368164 -227.34472656 75.98095703 C-243.98131616 84.02373558 -260.07742709 92.72978444 -275.875 102.3125 C-277.26936279 103.15409668 -277.26936279 103.15409668 -278.69189453 104.01269531 C-309.85292001 122.86798834 -339.43683493 144.48918249 -366.36328125 169.046875 C-367.76600133 170.31215905 -369.1748091 171.57105302 -370.6053772 172.80476379 C-375.39436013 176.93510557 -379.94643178 181.23692821 -384.41015625 185.71484375 C-385.09250839 186.39623917 -385.77486053 187.07763458 -386.47789001 187.77967834 C-387.90844437 189.20955741 -389.33775767 190.64067911 -390.76586914 192.07299805 C-392.93199074 194.24447711 -395.10340174 196.41056325 -397.27539062 198.57617188 C-398.67479987 199.97624202 -400.07389884 201.37662238 -401.47265625 202.77734375 C-402.43075951 203.73241066 -402.43075951 203.73241066 -403.40821838 204.70677185 C-407.76066035 209.08154702 -411.85245808 213.63417129 -415.875 218.3125 C-416.82437095 219.39554029 -417.77468706 220.47775397 -418.7265625 221.55859375 C-425.95860008 229.85067678 -432.70806684 238.44565321 -439.31201172 247.24365234 C-440.74515523 249.14063112 -442.19758708 251.02020627 -443.66015625 252.89453125 C-459.34095838 273.14323129 -473.32559021 295.00801566 -485.875 317.3125 C-486.61556641 318.62444336 -486.61556641 318.62444336 -487.37109375 319.96289062 C-512.31368249 364.37365576 -531.98999748 410.99597703 -544.875 460.3125 C-545.17744629 461.46991699 -545.47989258 462.62733398 -545.79150391 463.81982422 C-552.40486451 489.47260909 -557.2902975 515.29878843 -560.625 541.5625 C-560.72605042 542.34557526 -560.82710083 543.12865051 -560.93121338 543.93545532 C-564.08499021 568.66433198 -565.26190693 593.39494267 -565.1875 618.3125 C-565.18476578 620.23340454 -565.18476578 620.23340454 -565.18197632 622.19311523 C-565.13226692 643.04450657 -564.41485799 663.61532026 -561.875 684.3125 C-561.79014343 685.02055786 -561.70528687 685.72861572 -561.61785889 686.45812988 C-551.99911751 766.49445526 -526.12470439 844.35468609 -459.875 955.3125 C-459.42463379 955.96460449 -458.97426758 956.61670898 -458.51025391 957.28857422 C-442.75639387 979.98501825 -425.20420733 1001.4642521 -406.38916016 1021.68505859 C-404.70826927 1023.49170462 -403.03200098 1025.30259018 -401.35546875 1027.11328125 C-389.79414929 1039.58785083 -389.79414929 1039.58785083 -377.328125 1051.140625 C-374.67586007 1053.4888086 -372.10024069 1055.90681681 -369.52392578 1058.33764648 C-362.85303113 1064.62907899 -356.04761178 1070.59366591 -348.875 1076.3125 C-347.68457047 1077.29229687 -346.49588217 1078.27421168 -345.30859375 1079.2578125 C-335.11604878 1087.6783573 -324.60461527 1095.59083073 -313.875 1103.3125 C-313.0598291 1103.90208496 -312.2446582 1104.49166992 -311.40478516 1105.09912109 C-300.00244748 1113.32129132 -288.3484902 1120.87378605 -276.20214844 1127.94824219 C-274.0517691 1129.20887162 -271.91793777 1130.49254513 -269.7890625 1131.7890625 C-256.84332348 1139.63071817 -243.38293719 1146.4984554 -229.875 1153.3125 C-228.49803955 1154.00907715 -228.49803955 1154.00907715 -227.09326172 1154.71972656 C-155.07306668 1190.87372742 -73.02356185 1209.46925755 21.125 1214.3125 C22.12644043 1214.33441406 23.12788086 1214.35632812 24.15966797 1214.37890625 C106.09729581 1215.90356361 190.06747941 1200.07131017 366.36328125 1113.75 C367.29261475 1113.15445312 367.29261475 1113.15445312 368.24072266 1112.546875 C369.54685612 1111.69123743 370.83211207 1110.80319742 372.09912109 1109.890625 C377.04773981 1106.46067462 380.09603167 1105.49940237 386.125 1106.3125 C389.44140625 1107.74609375 389.44140625 1107.74609375 392.6875 1109.75 C393.27031738 1110.10255859 393.85313477 1110.45511719 394.45361328 1110.81835938 C395.69663704 1111.57202708 396.93516642 1112.33314999 398.16943359 1113.10107422 C400.91154547 1114.79974577 403.68522053 1116.44398279 406.45678711 1118.09399414 C409.3534919 1119.82149487 412.23937073 1121.56657304 415.125 1123.3125 C413.82460561 1126.22948458 412.52345325 1128.11693052 410.10546875 1130.1953125 C409.50250977 1130.71730225 408.89955078 1131.23929199 408.27832031 1131.77709961 C407.30523926 1132.5989978 407.30523926 1132.5989978 406.3125 1133.4375 C405.29881348 1134.30290405 405.29881348 1134.30290405 404.26464844 1135.18579102 C398.04928732 1140.45251477 391.65750048 1145.44450609 385.125 1150.3125 C384.42391113 1150.83956543 383.72282227 1151.36663086 383.00048828 1151.90966797 C313.51734405 1204.11511717 233.94228333 1240.310575 40.125 1276.3125 C38.70501709 1276.39709473 38.70501709 1276.39709473 37.25634766 1276.48339844 C-47.8902042 1281.34070384 -132.68469972 1268.74554547 -394.875 1138.3125 C-395.79152344 1137.57902344 -396.70804688 1136.84554688 -397.65234375 1136.08984375 C-409.52188995 1126.48614338 -420.96703603 1116.39082019 -432.11376953 1105.96044922 C-434.07186397 1104.1282982 -436.03403314 1102.30055887 -437.99609375 1100.47265625 C-439.41432317 1099.14871668 -440.83229532 1097.82450145 -442.25 1096.5 C-442.90411865 1095.88979004 -443.5582373 1095.27958008 -444.23217773 1094.65087891 C-455.45640034 1084.13451593 -455.45640034 1084.13451593 -460.375 1078.3125 C-462.6205794 1075.70602391 -464.92051512 1073.22315479 -467.375 1070.8125 C-471.08704116 1067.14962494 -474.48291175 1063.27100906 -477.875 1059.3125 C-478.7587913 1058.29268849 -479.64293245 1057.27318012 -480.52734375 1056.25390625 C-493.34530891 1041.44327738 -505.43477535 1026.21403176 -516.875 1010.3125 C-517.44863281 1009.51859863 -518.02226563 1008.72469727 -518.61328125 1007.90673828 C-538.54875099 980.22546103 -555.49325187 950.72976691 -570.875 920.3125 C-571.59937256 918.8879248 -571.59937256 918.8879248 -572.33837891 917.43457031 C-608.7408068 845.35897852 -628.86406071 764.61092847 -634.875 684.3125 C-634.9692627 683.10263428 -635.06352539 681.89276855 -635.16064453 680.64624023 C-641.47038115 589.13248412 -627.08413802 497.7606568 -554.875 324.3125 C-554.15425293 323.03681152 -554.15425293 323.03681152 -553.41894531 321.73535156 C-536.91210178 292.58310637 -517.67333902 264.84568746 -496.31201172 239.05371094 C-494.22996868 236.5309228 -492.18093205 233.9815823 -490.125 231.4375 C-486.53451125 227.05131686 -482.79661279 222.82334589 -478.98046875 218.6328125 C-477.14582315 216.61095816 -475.34731214 214.56571478 -473.5625 212.5 C-464.84277015 202.5151012 -455.68989372 192.96129122 -446.30078125 183.60791016 C-444.60818653 181.92074042 -442.92109403 180.22819804 -441.234375 178.53515625 C-435.61458471 172.91192658 -429.92746252 167.47317028 -423.875 162.3125 C-422.09929779 160.69282183 -420.32791693 159.06838282 -418.5625 157.4375 C-414.13003526 153.39970678 -409.59757823 149.53942566 -404.9296875 145.77734375 C-402.6918842 143.97164825 -400.47018101 142.15270688 -398.2578125 140.31640625 C-389.13801428 132.77547596 -379.75216616 125.71889818 -370.09228516 118.88574219 C-367.9633312 117.37517411 -365.84564243 115.85009485 -363.73046875 114.3203125 C-290.95969684 61.92952299 -205.57805054 26.7826436 -76.6875 4 C-74.90339722 3.77872437 -74.90339722 3.77872437 -73.08325195 3.55297852 C-69.01803815 3.08632602 -64.9501115 2.68027248 -60.875 2.3125 C-59.9207312 2.22636444 -58.9664624 2.14022888 -57.98327637 2.05148315 C-38.64767655 0.36584507 -19.39168754 -0.05159081 0 0 Z " fill="#273980" transform="translate(790.875,152.6875)"/>
<path d="M0 0 C-3 1 -3 1 -6.6315918 -0.5637207 C-8.15915611 -1.34128609 -9.68134501 -2.12946474 -11.19921875 -2.92578125 C-12.88765316 -3.78914494 -14.57613147 -4.65242279 -16.26464844 -5.515625 C-17.14954956 -5.97259766 -18.03445068 -6.42957031 -18.94616699 -6.90039062 C-99.71370909 -48.50518766 -189.20564122 -64.96581484 -348.39091492 -37.11590576 C-364.32290048 -32.00445788 -379.75225256 -25.87451861 -395 -19 C-396.39702148 -18.37375732 -396.39702148 -18.37375732 -397.82226562 -17.73486328 C-433.13918152 -1.77895917 -465.32863836 20.20005594 -495 45 C-495.5480127 45.45632813 -496.09602539 45.91265625 -496.66064453 46.3828125 C-503.97988074 52.49477307 -510.94109685 58.78497687 -517.60546875 65.60546875 C-519.5886357 67.5886357 -521.58709483 69.40825872 -523.75 71.1875 C-526.9521599 73.84071821 -529.57047123 76.84272167 -532.2578125 80.0078125 C-533.89073643 81.87505735 -535.58929139 83.59262396 -537.375 85.3125 C-541.10643547 88.98576164 -544.35174657 92.99182373 -547.62890625 97.0703125 C-549.95522096 99.9446717 -552.34778994 102.75148596 -554.75 105.5625 C-561.27525107 113.38469539 -567.15566276 121.66242775 -573 130 C-573.43812012 130.62213379 -573.87624023 131.24426758 -574.32763672 131.88525391 C-624.10097326 203.02104588 -648.19660229 290.97835417 -648.25 377.3125 C-648.25067474 378.29943848 -648.25134949 379.28637695 -648.25204468 380.30322266 C-648.15669005 468.74953999 -619.14857291 552.15738524 -568 624 C-567.42749512 624.80453613 -566.85499023 625.60907227 -566.26513672 626.43798828 C-558.65377419 637.07456804 -550.67837067 647.21734563 -542 657 C-540.77024445 658.41615551 -539.54098098 659.83273869 -538.3125 661.25 C-537.2086762 662.50030278 -536.10450644 663.75030022 -535 665 C-534.40960937 665.68320313 -533.81921875 666.36640625 -533.2109375 667.0703125 C-528.00670828 672.99790949 -522.50458992 678.60170384 -516.9375 684.1875 C-515.80380981 685.32807861 -515.80380981 685.32807861 -514.6472168 686.49169922 C-509.92658507 691.19949617 -505.06785402 695.66987582 -500 700 C-498.97893209 700.88905358 -497.95808135 701.77835667 -496.9375 702.66796875 C-475.12473207 721.37705827 -451.19256595 737.21936532 -426 751 C-425.24009766 751.42442383 -424.48019531 751.84884766 -423.69726562 752.28613281 C-374.16736784 779.93924807 -316.274203 796.29929856 -260 802 C-258.99179199 802.10296387 -257.98358398 802.20592773 -256.94482422 802.31201172 C-191.50428347 808.69768496 -123.66231407 799.83771713 -62.40429688 775.73022461 C-56.60674454 773.96941236 -51.51231843 774.85285327 -46.07421875 777.3359375 C-43.11688228 778.98973494 -40.24808291 780.7264848 -37.38085938 782.52929688 C-34.46277949 784.33185155 -31.50652451 786.0634392 -28.546875 787.796875 C-26.81777871 788.81423064 -25.08940119 789.83279362 -23.36138916 790.85198975 C-21.63546412 791.86883496 -19.90733701 792.88193947 -18.17919922 793.89501953 C-17.1223291 794.52520996 -16.06545898 795.15540039 -14.9765625 795.8046875 C-13.53917725 796.65522705 -13.53917725 796.65522705 -12.07275391 797.52294922 C-11.38874512 798.01037598 -10.70473633 798.49780273 -10 799 C-10 799.66 -10 800.32 -10 801 C-67.3665173 834.24797589 -128.22869454 855.67448799 -194.1875 863.25 C-194.91135895 863.33326538 -195.6352179 863.41653076 -196.38101196 863.50231934 C-213.49770869 865.44279212 -230.53002345 866.23891676 -247.75 866.25 C-249.1816449 866.25101212 -249.1816449 866.25101212 -250.64221191 866.25204468 C-354.54497123 866.13667384 -456.09077531 831.21268545 -553 754 C-553.72960937 753.36964844 -554.45921875 752.73929688 -555.2109375 752.08984375 C-557.15208654 750.40572433 -559.07661151 748.70436627 -561 747 C-561.70334473 746.3814917 -562.40668945 745.7629834 -563.13134766 745.12573242 C-569.51235771 739.45881624 -575.60411319 733.55082411 -581.6237793 727.5065918 C-583.1927236 725.93225845 -584.76698558 724.36338411 -586.34179688 722.79492188 C-591.77162321 717.36904703 -597.03657521 711.86030317 -602 706 C-602.98440455 704.86998393 -603.9700502 703.74104764 -604.95703125 702.61328125 C-611.60142387 694.95487113 -617.95150717 687.13873225 -624 679 C-624.48549316 678.35111816 -624.97098633 677.70223633 -625.47119141 677.03369141 C-678.84646758 605.44584859 -709.72145722 520.24925599 -717.25 370.4375 C-717.20709839 369.64108093 -717.16419678 368.84466187 -717.11999512 368.02410889 C-713.45370669 301.9932386 -695.42283283 239.01608752 -666 180 C-665.57219238 179.14035645 -665.14438477 178.28071289 -664.70361328 177.39501953 C-653.08423958 154.2346257 -638.80489267 132.50872977 -623 112 C-622.58814453 111.46197754 -622.17628906 110.92395508 -621.75195312 110.36962891 C-605.20902952 88.79541763 -586.79034898 67.40185724 -566.03515625 49.7578125 C-563.59171962 47.6473586 -561.24081179 45.44707121 -558.875 43.25 C-553.06573266 37.95425905 -546.95487635 33.11876777 -540.72460938 28.33056641 C-539.11544831 27.0890704 -537.51817102 25.83221346 -535.921875 24.57421875 C-470.410487 -26.74303519 -391.33733522 -58.43526918 -309 -69 C-307.75686035 -69.16371094 -306.5137207 -69.32742188 -305.23291016 -69.49609375 C-217.96091679 -80.51177892 -126.24482966 -65.29889792 0 0 Z " fill="#273980" transform="translate(1053,381)"/>
<path d="M0 0 C0.90200638 -0.00310181 1.80401276 -0.00620361 2.73335266 -0.00939941 C3.7235289 -0.00742554 4.71370514 -0.00545166 5.73388672 -0.00341797 C6.75882736 -0.00482788 7.78376801 -0.00623779 8.83976746 -0.00769043 C12.19773733 -0.0098392 15.55561378 -0.00350592 18.91357422 0.00439453 C20.62110367 0.00672089 20.62110367 0.00672089 22.36312866 0.00909424 C74.31062423 0.0925455 74.31062423 0.0925455 97.78857422 3.12939453 C98.52672363 3.22446289 99.26487305 3.31953125 100.02539062 3.41748047 C126.26383936 6.98773559 150.27337148 17.824783 166.78857422 39.12939453 C174.15780502 49.29199447 178.42538425 60.09999568 181.78857422 72.12939453 C182.04380859 73.00724609 182.29904297 73.88509766 182.56201172 74.78955078 C188.77947771 100.33522627 184.10450967 129.73118695 170.78857422 152.12939453 C168.31934036 155.9447184 165.61984671 159.57524396 162.78857422 163.12939453 C163.80564453 163.85642578 163.80564453 163.85642578 164.84326172 164.59814453 C189.45388291 182.32324566 208.9528662 202.1968944 214.1640625 233.37597656 C218.1475307 260.71119644 215.34961512 290.59298048 198.97998047 313.68017578 C177.9743685 340.85645042 146.677226 354.12772165 113.28315353 358.45397568 C98.8379987 360.07288248 84.50572122 360.39928586 69.98388672 360.32470703 C67.79572684 360.32096335 65.60756525 360.31812282 63.41940308 360.31613159 C57.74132416 360.30860156 52.06335237 360.28904842 46.38531494 360.26672363 C40.55881193 360.24603213 34.73229111 360.23708075 28.90576172 360.22705078 C17.53331957 360.20578922 6.1609559 360.17178683 -5.21142578 360.12939453 C-5.23429015 314.41193929 -5.25192298 268.69448465 -5.26249111 222.97702483 C-5.26374189 217.58567605 -5.26503621 212.19432728 -5.26635742 206.80297852 C-5.26661973 205.72961012 -5.26688204 204.65624173 -5.2671523 203.55034702 C-5.27150944 186.14636489 -5.27939722 168.74238604 -5.28857858 151.33840586 C-5.29791391 133.49437542 -5.30348113 115.65034671 -5.30551428 97.80631393 C-5.30688975 86.78622115 -5.31124168 75.76613765 -5.31934225 64.74604773 C-5.32460823 57.20001106 -5.32623042 49.65397923 -5.32492716 42.10794086 C-5.32428355 37.74741183 -5.3253039 33.38689908 -5.33063126 29.02637291 C-5.33546488 25.04111776 -5.33576468 21.05589 -5.33232468 17.07063364 C-5.33189895 15.62244184 -5.333195 14.17424838 -5.33630896 12.72605986 C-5.34027244 10.7704033 -5.33758237 8.81473652 -5.33447361 6.85907841 C-5.33485333 5.76890134 -5.33523305 4.67872427 -5.33562428 3.55551153 C-5.12773546 -0.50542808 -3.64086606 0.00365498 0 0 Z M52.78857422 55.12939453 C52.78857422 86.80939453 52.78857422 118.48939453 52.78857422 151.12939453 C88.0574244 149.46464082 88.0574244 149.46464082 118.78857422 133.12939453 C128.0639391 120.84505712 125.66573426 99.16795932 124.16357422 84.56689453 C122.81933247 75.28610215 119.59141977 70.01755223 112.22607422 64.31689453 C94.83198878 53.0680249 72.36746489 55.12939453 52.78857422 55.12939453 Z M53.78857422 202.12939453 C53.78857422 235.45939453 53.78857422 268.78939453 53.78857422 303.12939453 C57.74896377 304.11949192 61.31048542 304.30726657 65.35107422 304.33251953 C66.09069397 304.33953384 66.83031372 304.34654816 67.59234619 304.35377502 C69.99115031 304.37132427 72.38970811 304.37763478 74.78857422 304.37939453 C75.6040271 304.38006927 76.41947998 304.38074402 77.25964355 304.38143921 C100.9049215 304.35027027 127.36845976 302.61823485 145.45654297 285.61376953 C155.86239289 274.52814047 157.56557507 261.56972506 157.12841797 246.94970703 C156.52718968 235.93075442 152.19998279 227.24604094 144.78857422 219.12939453 C121.06761693 198.00416489 81.71154734 202.12939453 53.78857422 202.12939453 Z " fill="#273980" transform="translate(1352.21142578125,576.87060546875)"/>
<path d="M0 0 C1.27096024 -0.00637985 2.54192047 -0.0127597 3.85139465 -0.01933289 C5.25989748 -0.02086567 6.66840082 -0.02197742 8.0769043 -0.02270508 C9.53297457 -0.02592405 10.98904452 -0.02928859 12.44511414 -0.03279114 C15.52298728 -0.03880548 18.60083233 -0.04062975 21.67871094 -0.04003906 C24.778707 -0.03995918 27.87855096 -0.04666656 30.97851562 -0.06054688 C123.84513036 -0.47032658 123.84513036 -0.47032658 158.27612305 32.83276367 C175.33531696 50.04881741 183.71118877 73.35836518 184.27612305 97.33276367 C183.96459695 119.54457408 177.01438971 142.50883984 163.4362793 160.26245117 C161.90389646 162.20773855 161.90389646 162.20773855 161.08862305 165.14526367 C162.14049805 165.52231445 162.14049805 165.52231445 163.21362305 165.90698242 C183.04942377 174.45039116 197.32749738 193.44902673 205.74487305 212.66870117 C216.35563168 240.1209546 217.79015331 270.01300031 205.92553711 297.29321289 C201.75798555 306.51580511 196.84961154 314.60783657 190.08862305 322.14526367 C189.27651367 323.05147461 188.4644043 323.95768555 187.62768555 324.89135742 C158.40652123 355.78352673 112.10374678 358.5243701 72.08862305 360.14526367 C65.77579185 360.29888808 59.46138627 360.26320201 53.1472168 360.24291992 C51.40031475 360.24104835 49.65341217 360.23962795 47.9065094 360.2386322 C43.37096637 360.23486514 38.83545681 360.2250866 34.29992676 360.21392822 C29.6468145 360.20358706 24.99369668 360.19910773 20.34057617 360.1940918 C11.25657732 360.18345737 2.172603 360.16645346 -6.91137695 360.14526367 C-6.93424132 314.42780843 -6.95187416 268.71035379 -6.96244228 222.99289397 C-6.96369306 217.60154519 -6.96498738 212.21019642 -6.96630859 206.81884766 C-6.9665709 205.74547926 -6.96683321 204.67211087 -6.96710347 203.56621616 C-6.97146061 186.16223403 -6.97934839 168.75825518 -6.98852975 151.354275 C-6.99786508 133.51024456 -7.00343231 115.66621585 -7.00546545 97.82218307 C-7.00684093 86.80209029 -7.01119285 75.78200679 -7.01929342 64.76191687 C-7.0245594 57.2158802 -7.02618159 49.66984837 -7.02487833 42.12381 C-7.02423472 37.76328097 -7.02525507 33.40276822 -7.03058243 29.04224205 C-7.03541605 25.0569869 -7.03571585 21.07175914 -7.03227585 17.08650278 C-7.03185012 15.63831098 -7.03314617 14.19011752 -7.03626014 12.741929 C-7.04022362 10.78627244 -7.03753354 8.83060566 -7.03442478 6.87494755 C-7.0348045 5.78477048 -7.03518422 4.69459341 -7.03557545 3.57138067 C-6.79676363 -1.0936147 -4.0650266 0.01381836 0 0 Z M51.08862305 53.14526367 C51.04235762 65.36678401 51.0067834 77.58828363 50.9849987 89.80987358 C50.9745451 95.48436442 50.96035722 101.15879551 50.93774414 106.83325195 C50.91607188 112.30564082 50.90406631 117.77797209 50.89886856 123.25040054 C50.89516268 125.34207186 50.88792641 127.4337399 50.87716293 129.52538681 C50.86272264 132.44676366 50.86064196 135.36790006 50.86157227 138.28930664 C50.85438171 139.16108551 50.84719116 140.03286438 50.83978271 140.93106079 C50.64322547 145.51602154 50.64322547 145.51602154 53.08862305 149.14526367 C70.22467454 151.12943806 95.03396004 149.39872525 109.46362305 139.33276367 C118.79226757 131.57179593 123.11494097 122.87189316 124.25463867 110.74804688 C124.32360352 109.78600342 124.39256836 108.82395996 124.46362305 107.83276367 C124.54032227 106.82238037 124.61702148 105.81199707 124.69604492 104.77099609 C125.57917066 91.1623345 123.86073914 79.30313306 114.89331055 68.50073242 C105.17476021 58.82905612 91.29743456 58.37035568 78.27758789 56.35546875 C75.69641808 55.95509495 73.11712974 55.54389705 70.5378418 55.1315918 C68.88039026 54.87118542 67.22284141 54.61139744 65.56518555 54.35229492 C64.42129868 54.16954765 64.42129868 54.16954765 63.25430298 53.98310852 C62.53269989 53.87266708 61.8110968 53.76222565 61.06762695 53.6484375 C60.44207916 53.55089676 59.81653137 53.45335602 59.17202759 53.3528595 C56.47165707 53.08378758 53.80030667 53.11426828 51.08862305 53.14526367 Z M51.08862305 202.14526367 C51.08862305 235.47526367 51.08862305 268.80526367 51.08862305 303.14526367 C58.63014569 304.40218411 66.03290183 304.38942785 73.65112305 304.39526367 C74.43596069 304.39593842 75.22079834 304.39661316 76.02941895 304.39730835 C98.97496355 304.36596198 125.57834445 302.9354269 143.40112305 286.45776367 C152.0899599 277.12663087 155.48721843 266.33811861 155.40112305 253.83276367 C155.39693359 252.99898193 155.39274414 252.1652002 155.38842773 251.30615234 C155.27121082 244.88977335 154.47284437 239.14692424 152.08862305 233.14526367 C151.81018555 232.43370117 151.53174805 231.72213867 151.24487305 230.98901367 C146.51358045 220.38439233 138.31759438 214.19268632 127.8269043 209.77026367 C102.20529236 200.12988113 79.53986969 202.14526367 51.08862305 202.14526367 Z " fill="#273980" transform="translate(1643.911376953125,576.854736328125)"/>
<path d="M0 0 C19.14 0 38.28 0 58 0 C58 45.21 58 90.42 58 137 C108.82 137 159.64 137 212 137 C212 91.79 212 46.58 212 0 C230.81 0 249.62 0 269 0 C269 118.47 269 236.94 269 359 C250.19 359 231.38 359 212 359 C212 304.22 212 249.44 212 193 C161.18 193 110.36 193 58 193 C58 247.78 58 302.56 58 359 C38.86 359 19.72 359 0 359 C0 240.53 0 122.06 0 0 Z " fill="#273980" transform="translate(650,577)"/>
<path d="M0 0 C19.14 0 38.28 0 58 0 C58.01981934 6.97334473 58.03963867 13.94668945 58.06005859 21.13134766 C58.12506574 43.52333264 58.19961084 65.91527966 58.28005161 88.307214 C58.29256831 91.79383902 58.30500142 95.28046434 58.31738281 98.76708984 C58.31984881 99.46112287 58.3223148 100.1551559 58.32485552 100.87022023 C58.36442221 112.06183531 58.39724015 123.25346029 58.42749982 134.44510396 C58.45877409 145.95554694 58.49759203 157.46594445 58.54279006 168.97634161 C58.56789942 175.43025647 58.58972549 181.88414262 58.60334396 188.3380928 C58.61630703 194.43001114 58.63851019 200.5218302 58.66738319 206.61369324 C58.67634898 208.83299552 58.68212296 211.05231374 58.68421364 213.27163315 C58.69634409 224.20618076 58.93107588 235.05800016 59.88320923 245.95565796 C59.95888449 246.84002836 60.03455975 247.72439876 60.1125282 248.63556826 C61.36178461 261.48610887 65.21319681 272.57658174 73 283 C73.43699219 283.63035156 73.87398437 284.26070312 74.32421875 284.91015625 C84.54502772 298.38443594 103.34629937 305.73179566 119.3984375 308.3984375 C139.52656482 311.0115628 160.06013225 306.50102097 176.8828125 295.03515625 C192.46495887 283.03386524 199.93924622 266.85203921 202.69696808 247.75752258 C203.81751725 237.56077621 203.56831209 227.20760307 203.63597226 216.95854425 C203.66410603 213.14982174 203.70854073 209.34127799 203.75022888 205.53268433 C203.84783679 196.24952053 203.91639161 186.96622633 203.9810133 177.68278313 C204.00660271 174.06705089 204.03404991 170.45133366 204.06146991 166.83561492 C204.25013472 141.89601408 204.39227451 116.95624255 204.51741159 92.01625133 C204.56806927 81.94240822 204.62248606 71.86858622 204.67708123 61.7947638 C204.78863626 41.19652831 204.89541122 20.59827212 205 0 C223.81 0 242.62 0 262 0 C262.13124872 27.18454273 262.26180834 54.3690885 262.39115143 81.55364037 C262.45124689 94.1796426 262.51163706 106.80564329 262.57275391 119.43164062 C262.62610464 130.45341478 262.67886894 141.47519157 262.73096704 152.49697173 C262.75849901 158.31746541 262.78629874 164.1379575 262.81480408 169.9584465 C262.87127014 181.51942475 262.92461346 193.08039818 262.96725225 204.6414367 C262.98727899 210.02298103 263.01232918 215.40446089 263.04238558 220.78595817 C263.05873158 223.93385716 263.06998904 227.08175827 263.07968807 230.22968411 C263.08502455 231.63969487 263.09240558 233.04969987 263.10215855 234.45968699 C263.33552604 268.95195231 252.93312947 301.03861088 228.73828125 326.2265625 C203.00986074 352.2853051 168.15775777 365.64551193 131.67236328 366.02734375 C99.03212509 365.69336726 66.98342993 355.38633923 42 334 C41.48888672 333.57106445 40.97777344 333.14212891 40.45117188 332.70019531 C14.93681621 311.1614808 3.41094486 281.4900476 0.21333039 248.76178765 C-0.12934554 244.32548504 -0.13421366 239.90579037 -0.12025452 235.45834351 C-0.12110894 234.44524538 -0.12196337 233.43214725 -0.12284368 232.38834918 C-0.12448068 229.01978596 -0.11900644 225.65127341 -0.11352539 222.28271484 C-0.11324311 219.85762534 -0.11340206 217.43253575 -0.1139679 215.00744629 C-0.11419505 209.79979342 -0.11137283 204.59215184 -0.10573006 199.38450241 C-0.09757706 191.85526557 -0.09499595 184.32603478 -0.09374207 176.79679401 C-0.0915575 164.57888136 -0.0849136 152.36097542 -0.07543945 140.14306641 C-0.0662499 128.2797855 -0.05917663 116.41650641 -0.05493164 104.55322266 C-0.05453756 103.45496214 -0.05453756 103.45496214 -0.05413551 102.33451454 C-0.0528304 98.66113937 -0.05156671 94.98776418 -0.05032361 91.31438899 C-0.03996955 60.87625346 -0.02154126 30.43813025 0 0 Z " fill="#273980" transform="translate(1003,577)"/>
<path d="M0 0 C64.02 0 128.04 0 194 0 C194 17.82 194 35.64 194 54 C149.12 54 104.24 54 58 54 C58 80.73 58 107.46 58 135 C101.56 135 145.12 135 190 135 C190 153.48 190 171.96 190 191 C146.11 191 102.22 191 57 191 C57 228.29 57 265.58 57 304 C102.21 304 147.42 304 194 304 C194 322.15 194 340.3 194 359 C129.98 359 65.96 359 0 359 C0 240.53 0 122.06 0 0 Z " fill="#273980" transform="translate(2131,577)"/>
<path d="M0 0 C18.81 0 37.62 0 57 0 C57 100.32 57 200.64 57 304 C88.02 304 119.04 304 151 304 C151 322.15 151 340.3 151 359 C101.17 359 51.34 359 0 359 C0 240.53 0 122.06 0 0 Z " fill="#273980" transform="translate(1927,577)"/>
<path d="M0 0 C0 38.28 0 76.56 0 116 C-6.93 116 -13.86 116 -21 116 C-21 89.27 -21 62.54 -21 35 C-21.99 35 -22.98 35 -24 35 C-24.08846191 36.01497559 -24.17692383 37.02995117 -24.26806641 38.07568359 C-25.11242129 44.77679933 -26.99866613 51.26900033 -28.7109375 57.7890625 C-29.08371673 59.2205055 -29.45624041 60.65201507 -29.82852173 62.08358765 C-30.60687843 65.07160285 -31.38904859 68.05858742 -32.17382812 71.04492188 C-33.17599015 74.86014526 -34.16740576 78.67806753 -35.15584373 82.49686623 C-35.92151666 85.44930719 -36.69345866 88.4000819 -37.46721268 91.35041428 C-37.83524416 92.75720063 -38.20122073 94.16452632 -38.5650444 95.57240677 C-39.07515458 97.5429553 -39.59477187 99.51103523 -40.11474609 101.47900391 C-40.40707123 102.59626862 -40.69939636 103.71353333 -41.00057983 104.86465454 C-42.38489365 109.2074747 -43.69884314 112.93946804 -47.28125 115.859375 C-50.54672429 117.22937284 -52.96766827 117.33253112 -56.5 117.25 C-57.6034375 117.23453125 -58.706875 117.2190625 -59.84375 117.203125 C-62.66572877 117.02151251 -65.24102896 116.5838535 -68 116 C-72.07676847 101.54235731 -75.95195511 87.03252292 -79.78588867 72.50878906 C-80.65031013 69.23524462 -81.52049816 65.9632594 -82.39178944 62.69153786 C-83.23026057 59.53766186 -84.06191236 56.38198765 -84.89453125 53.2265625 C-85.20695267 52.0568692 -85.51937408 50.8871759 -85.84126282 49.68203735 C-86.26752205 48.05786392 -86.26752205 48.05786392 -86.70239258 46.40087891 C-86.95378494 45.45145416 -87.20517731 44.50202942 -87.46418762 43.52383423 C-88 41 -88 41 -88 37 C-88.99 37.495 -88.99 37.495 -90 38 C-90.33 64.07 -90.66 90.14 -91 117 C-97.93 117 -104.86 117 -112 117 C-112 78.72 -112 40.44 -112 1 C-100.45 1 -88.9 1 -77 1 C-75.11531714 7.71773259 -73.23114106 14.43560363 -71.34814453 21.15380859 C-70.71040202 23.42862622 -70.07239096 25.70336859 -69.43408203 27.97802734 C-65.22765366 42.96881067 -61.07147026 57.97196923 -57 73 C-56.34 73 -55.68 73 -55 73 C-53.20271815 66.09917002 -51.40635248 59.198102 -49.6105957 52.296875 C-49.00077603 49.95372232 -48.39075379 47.61062236 -47.78051758 45.26757812 C-46.89870593 41.88165211 -46.01764551 38.49553133 -45.13671875 35.109375 C-44.86784348 34.07762146 -44.5989682 33.04586792 -44.32194519 31.98284912 C-44.06190201 30.9827179 -43.80185883 29.98258667 -43.53393555 28.95214844 C-43.27897308 27.97580444 -43.02401062 26.99946045 -42.76132202 25.99353027 C-42.23396443 23.91995184 -41.72859355 21.84070441 -41.24087524 19.75744629 C-40.99227753 18.70343628 -40.74367981 17.64942627 -40.48754883 16.56347656 C-40.2714949 15.61845276 -40.05544098 14.67342896 -39.83283997 13.69976807 C-38.46872003 9.27778115 -36.12515909 5.40787519 -33 2 C-23.14324822 -2.92837589 -11.0201835 0 0 0 Z " fill="#273980" transform="translate(2325,1010)"/>
<path d="M0 0 C7.59 0 15.18 0 23 0 C23 14.52 23 29.04 23 44 C37.85 44 52.7 44 68 44 C68 29.81 68 15.62 68 1 C76.25 1 84.5 1 93 1 C93 38.62 93 76.24 93 115 C85.08 115 77.16 115 69 115 C69 99.16 69 83.32 69 67 C54.15 67 39.3 67 24 67 C24 82.84 24 98.68 24 115 C17 116 17 116 0 116 C0 77.72 0 39.44 0 0 Z " fill="#273980" transform="translate(1907,1011)"/>
<path d="M0 0 C7.59 0 15.18 0 23 0 C22.98839844 3.1659375 22.97679688 6.331875 22.96484375 9.59375 C22.85003546 37.55426548 22.85003546 37.55426548 23.20852661 65.51147461 C23.24886508 67.44558377 23.27105785 69.38004469 23.29272461 71.31445312 C23.50054522 78.80636037 24.27886278 85.72604208 29.37548828 91.57983398 C35.59623238 97.21212932 42.5814151 97.44746557 50.578125 97.3125 C55.12458944 96.89729777 58.45400982 95.90288869 62 93 C66.17968076 87.96294883 67.04236923 83.478689 67.29663086 77.09985352 C67.35519005 75.6648777 67.35519005 75.6648777 67.41493225 74.20091248 C67.45202805 73.16652542 67.48912384 72.13213837 67.52734375 71.06640625 C67.56866928 69.97268204 67.60999481 68.87895782 67.65257263 67.75209045 C68.13965962 54.15115054 68.34962587 40.54493595 68.5625 26.9375 C68.60585256 24.30533413 68.64947106 21.67317262 68.69335938 19.04101562 C68.79862383 12.69405632 68.90034167 6.3470497 69 0 C76.59 0 84.18 0 92 0 C92.04545689 10.1543698 92.08203349 20.30867036 92.10362434 30.46311951 C92.1139947 35.17987901 92.12802819 39.89656439 92.15087891 44.61328125 C92.17285102 49.17799594 92.18461913 53.74264001 92.18975449 58.30740356 C92.19340706 60.03582875 92.20053727 61.76425073 92.21146011 63.49264526 C92.414856 97.05855599 92.414856 97.05855599 83.5390625 107.76171875 C73.50448837 117.47812346 59.87296571 118.18040651 46.75 118.1875 C45.57308594 118.19974609 44.39617188 118.21199219 43.18359375 118.22460938 C29.10828894 118.24809431 18.5548297 115.99096958 8.05078125 106.28515625 C1.15037246 98.59612932 -0.15763344 90.25181167 -0.11352539 80.26245117 C-0.11367142 79.39365326 -0.11381744 78.52485535 -0.1139679 77.62973022 C-0.11327306 74.76745071 -0.10550073 71.90523685 -0.09765625 69.04296875 C-0.09579055 67.05471329 -0.09436736 65.06645738 -0.09336853 63.07820129 C-0.08955534 57.85200729 -0.07973528 52.6258412 -0.06866455 47.3996582 C-0.05842467 42.06396868 -0.05386539 36.72827464 -0.04882812 31.39257812 C-0.03811194 20.9283712 -0.02052483 10.46419229 0 0 Z " fill="#273980" transform="translate(2087,1011)"/>
<path d="M0 0 C30.03 0 60.06 0 91 0 C91 6.27 91 12.54 91 19 C80.11 19 69.22 19 58 19 C58 50.68 58 82.36 58 115 C49.42 115 40.84 115 32 115 C32 83.65 32 52.3 32 20 C21.44 20 10.88 20 0 20 C0 13.4 0 6.8 0 0 Z " fill="#273980" transform="translate(1792,1011)"/>
<path d="M0 0 C7.92 0 15.84 0 24 0 C24 32.01 24 64.02 24 97 C42.81 97 61.62 97 81 97 C81 102.61 81 108.22 81 114 C54.27 114 27.54 114 0 114 C0 76.38 0 38.76 0 0 Z " fill="#273980" transform="translate(1637,1012)"/>
<path d="M0 0 C7.26 0 14.52 0 22 0 C22 37.95 22 75.9 22 115 C14.74 115 7.48 115 0 115 C0 77.05 0 39.1 0 0 Z " fill="#273980" transform="translate(2033,1011)"/>
<path d="M0 0 C6.6 0 13.2 0 20 0 C20 37.95 20 75.9 20 115 C13.4 115 6.8 115 0 115 C0 77.05 0 39.1 0 0 Z " fill="#273980" transform="translate(1745,1011)"/>
<path d="M0 0 C4.29 0 8.58 0 13 0 C23.95744681 20.72340426 23.95744681 20.72340426 28 29 C30.42599321 25.96773286 32.17179735 22.87650158 33.8828125 19.39453125 C34.41003906 18.32912109 34.93726562 17.26371094 35.48046875 16.16601562 C36.02316406 15.05935547 36.56585937 13.95269531 37.125 12.8125 C38.2092004 10.6098212 39.29504728 8.40795179 40.3828125 6.20703125 C40.86121582 5.2322583 41.33961914 4.25748535 41.83251953 3.25317383 C43 1 43 1 44 0 C48.29 0 52.58 0 57 0 C57 16.83 57 33.66 57 51 C53.37 51 49.74 51 46 51 C45.67 41.43 45.34 31.86 45 22 C41.54663504 29.14371266 41.54663504 29.14371266 38.12011719 36.30029297 C37.68344727 37.18861816 37.24677734 38.07694336 36.796875 38.9921875 C36.35698242 39.90339355 35.91708984 40.81459961 35.46386719 41.75341797 C33.78913331 44.32361496 32.94259224 45.16476354 30 46 C26.95068359 45.93188477 26.95068359 45.93188477 24 45 C22.21728516 42.86694336 22.21728516 42.86694336 20.7890625 40.08984375 C20.31678223 39.199021 19.84450195 38.30819824 19.35791016 37.39038086 C18.7860498 36.25093018 18.21418945 35.11147949 17.625 33.9375 C15.76875 30.328125 13.9125 26.71875 12 23 C11.67 32.24 11.34 41.48 11 51 C7.37 51 3.74 51 0 51 C0 34.17 0 17.34 0 0 Z " fill="#273980" transform="translate(2383,989)"/>
<path d="M0 0 C13.53 0 27.06 0 41 0 C41 3.3 41 6.6 41 10 C36.38 10 31.76 10 27 10 C27 23.53 27 37.06 27 51 C22.71 51 18.42 51 14 51 C14 37.47 14 23.94 14 10 C9.38 10 4.76 10 0 10 C0 6.7 0 3.4 0 0 Z " fill="#273980" transform="translate(2331,989)"/>
</svg>
