<?xml version="1.0" encoding="UTF-8"?>
<svg version="1.1" xmlns="http://www.w3.org/2000/svg" width="320" height="320">
<path d="M0 0 C2.4375 1.5625 2.4375 1.5625 4 4 C4.7286693 7.9745598 4.99812354 10.3562371 2.8828125 13.83984375 C1.02774693 16.02254527 -0.94894687 17.99856912 -3 20 C-4.12140019 21.12991629 -5.24105708 22.26156424 -6.359375 23.39453125 C-9.55162451 26.61826165 -12.77020059 29.81391216 -16 33 C-14.60652624 36.15204981 -12.97514921 38.26171773 -10.5234375 40.671875 C-9.853125 41.33574219 -9.1828125 41.99960938 -8.4921875 42.68359375 C-7.79351562 43.36550781 -7.09484375 44.04742187 -6.375 44.75 C-5.66859375 45.44738281 -4.9621875 46.14476562 -4.234375 46.86328125 C-2.49401297 48.58012488 -0.74915019 50.29211832 1 52 C6.03830318 47.78955665 10.72106922 43.37756517 15.3125 38.6875 C16.53542986 37.43911894 17.76058417 36.19291188 18.98828125 34.94921875 C19.78552612 34.13457153 19.78552612 34.13457153 20.59887695 33.3034668 C22.92961734 31.13517564 24.10865821 30.99195124 27.375 30.75 C31 31 31 31 33.375 31.9375 C35.59395246 34.75386273 36.12279532 37.06595213 36.328125 40.625 C35.67570447 45.34728191 32.32985065 47.84025008 29 51 C27.80132015 52.20107584 26.60631401 53.40582404 25.4140625 54.61328125 C21.96581289 58.09932231 18.48889454 61.55465615 15 65 C19.55864723 70.46397437 24.39202711 75.40890031 29.51171875 80.3515625 C32.90799625 83.96643871 34.84255341 86.53049852 35.375 91.5 C34.70961667 97.7102444 30.98944303 101.29718794 26.67578125 105.51953125 C26.16951706 106.02296555 25.66325287 106.52639984 25.14164734 107.04508972 C23.53659782 108.63901748 21.92470856 110.22581707 20.3125 111.8125 C19.21763821 112.89732164 18.12323226 113.98260355 17.02929688 115.06835938 C14.35810872 117.71759348 11.68076716 120.36046077 9 123 C13.53202899 128.4633383 18.38707534 133.44871014 23.49609375 138.36914062 C27.20138025 142.00101236 29.69746449 144.63013851 30.375 149.9375 C29.88506448 153.93864009 29.1139376 155.41771029 26 158 C22.80383679 158.89166046 20.21159806 158.80825218 17 158 C13.84800144 156.14626314 11.52310875 153.62471045 9 151 C7.87226396 149.87771854 6.74183722 148.75813722 5.609375 147.640625 C2.38343328 144.44921571 -0.81322329 141.23049773 -4 138 C-7.76603869 139.56282982 -10.13639151 141.9063475 -12.984375 144.7890625 C-13.44483215 145.25234955 -13.90528931 145.7156366 -14.37969971 146.19296265 C-15.84125078 147.66565898 -17.29567168 149.14517403 -18.75 150.625 C-19.74302611 151.62806322 -20.73651089 152.63067257 -21.73046875 153.6328125 C-24.15897941 156.08330835 -26.58114675 158.5399667 -29 161 C-25.9478333 164.6851045 -22.90117905 168.17991853 -19.38671875 171.4296875 C-18.77892578 171.99816406 -18.17113281 172.56664062 -17.54492188 173.15234375 C-16.29995799 174.30697902 -15.04185162 175.44759337 -13.77148438 176.57421875 C-9.67237402 180.46683587 -8.21709701 183.32504972 -7.79443359 188.98266602 C-8 191 -8 191 -9.9375 194.0625 C-13.0441432 196.02792733 -15.20644025 196.87239489 -18.9140625 196.58984375 C-23.24510095 195.36514936 -25.93080195 192.14529386 -29 189 C-30.12991629 187.87859981 -31.26156424 186.75894292 -32.39453125 185.640625 C-35.61826165 182.44837549 -38.81391216 179.22979941 -42 176 C-45.82754278 177.56981914 -48.17197188 179.98496342 -51.02734375 182.9375 C-51.99402065 183.92459667 -52.96082135 184.91157212 -53.92773438 185.8984375 C-55.43547461 187.44964899 -56.940643 189.00325563 -58.44311523 190.55957031 C-59.90216253 192.06706953 -61.3704419 193.56510192 -62.83984375 195.0625 C-63.70988037 195.96097656 -64.57991699 196.85945312 -65.47631836 197.78515625 C-69.02539273 200.89990934 -71.60952177 201.97376456 -76.3125 202.0625 C-81.49421803 200.5694626 -84.2268457 197.75419372 -88 194 C-88.50354004 193.50338867 -89.00708008 193.00677734 -89.52587891 192.49511719 C-93.04453829 189.02331773 -96.53082691 185.52121068 -100 182 C-103.44507263 183.46874721 -105.53665133 185.37239925 -108.08203125 188.09765625 C-108.84966797 188.89880859 -109.61730469 189.69996094 -110.40820312 190.52539062 C-112.00749191 192.21302355 -113.59871117 193.90834137 -115.18164062 195.61132812 C-121.7733985 202.44538955 -121.7733985 202.44538955 -125.8984375 203.12109375 C-129.64046466 202.97499445 -131.2272516 202.53508425 -134 200 C-135.48127424 196.52222569 -136.35780216 194.25810703 -135.30712891 190.5637207 C-133.78856312 187.58530096 -132.03473851 185.69404374 -129.6484375 183.35546875 C-128.79765625 182.51435547 -127.946875 181.67324219 -127.0703125 180.80664062 C-126.18085937 179.94232422 -125.29140625 179.07800781 -124.375 178.1875 C-123.4778125 177.30384766 -122.580625 176.42019531 -121.65625 175.50976562 C-119.44411002 173.33292575 -117.22526927 171.16340336 -115 169 C-116.39347376 165.84795019 -118.02485079 163.73828227 -120.4765625 161.328125 C-121.146875 160.66425781 -121.8171875 160.00039062 -122.5078125 159.31640625 C-123.20648438 158.63449219 -123.90515625 157.95257813 -124.625 157.25 C-125.33140625 156.55261719 -126.0378125 155.85523438 -126.765625 155.13671875 C-128.50598703 153.41987512 -130.25084981 151.70788168 -132 150 C-135.6859325 153.05674148 -139.19308978 156.11459565 -142.46484375 159.61328125 C-143.32432617 160.5249707 -143.32432617 160.5249707 -144.20117188 161.45507812 C-145.36669823 162.70188978 -146.52028327 163.95996364 -147.66210938 165.22851562 C-150.67552324 168.38397593 -152.85330372 170.34965972 -157.2578125 171 C-161.28068194 171 -162.91935271 170.5205296 -166 168 C-167.65713558 164.68572884 -167.72911167 161.55679693 -167 158 C-165.13585355 154.88430646 -162.58780835 152.52520009 -160 150 C-158.87859981 148.87008371 -157.75894292 147.73843576 -156.640625 146.60546875 C-153.44837549 143.38173835 -150.22979941 140.18608784 -147 137 C-148.37848427 133.88387302 -149.95634105 131.82473273 -152.40625 129.46875 C-153.39818359 128.50001953 -153.39818359 128.50001953 -154.41015625 127.51171875 C-155.44462891 126.51591797 -155.44462891 126.51591797 -156.5 125.5 C-157.86926143 124.18192591 -159.23402944 122.85916423 -160.59375 121.53125 C-161.19896484 120.94923828 -161.80417969 120.36722656 -162.42773438 119.76757812 C-164.98207033 116.89593336 -165.90808949 114.53103849 -166.5625 110.75 C-165.25830129 102.05534196 -155.07995598 94.95796782 -149.0625 89 C-148.18787109 88.12988281 -147.31324219 87.25976562 -146.41210938 86.36328125 C-144.27702551 84.23986451 -142.13962795 82.11883622 -140 80 C-141.44343702 76.67156039 -143.24338928 74.5440401 -145.84375 72.03125 C-146.59527344 71.29519531 -147.34679687 70.55914062 -148.12109375 69.80078125 C-148.90613281 69.04152344 -149.69117188 68.28226562 -150.5 67.5 C-152.0567406 65.99438389 -153.60901758 64.48413544 -155.15625 62.96875 C-155.84525391 62.30294922 -156.53425781 61.63714844 -157.24414062 60.95117188 C-160.15338567 57.71831781 -161.03178091 55.88986561 -160.875 51.5 C-159.898503 47.594012 -159.38216497 46.16805447 -156 44 C-152.05848734 43.27738935 -149.66216142 43.0034227 -146.1953125 45.08203125 C-143.99724809 46.94519743 -142.01417468 48.93725197 -140 51 C-138.79584498 52.19559792 -137.58996702 53.38946189 -136.3828125 54.58203125 C-132.89991297 58.03329203 -129.4452632 61.51118712 -126 65 C-120.37696243 60.32533663 -115.20258446 55.32234333 -110.0625 50.125 C-109.28326172 49.34125 -108.50402344 48.5575 -107.70117188 47.75 C-105.79845915 45.83561419 -103.89813829 43.91891966 -102 42 C-103.46669405 38.55541102 -105.36184523 36.48474424 -108.09765625 33.953125 C-108.89880859 33.19 -109.69996094 32.426875 -110.52539062 31.640625 C-112.21109833 30.05224453 -113.90640906 28.47399167 -115.61132812 26.90625 C-122.44367539 20.34367309 -122.44367539 20.34367309 -123.10546875 15.5703125 C-122.95699169 10.5440892 -122.95699169 10.5440892 -121 8 C-117.93906214 5.95937476 -115.97162881 5.2649951 -112.29296875 5.37890625 C-107.1378964 6.77525464 -103.62762608 11.29486054 -100 15 C-98.90013551 16.09155735 -97.79850274 17.18133521 -96.6953125 18.26953125 C-93.77532639 21.1588345 -90.88230305 24.07312525 -88 27 C-82.03363156 22.06704856 -76.61702915 16.70049617 -71.1875 11.1875 C-69.49579848 9.47037847 -67.80190052 7.75541718 -66.10546875 6.04296875 C-64.99401489 4.91411255 -64.99401489 4.91411255 -63.86010742 3.76245117 C-60.66609961 0.73612982 -57.85603376 0.35124277 -53.55859375 0.40625 C-48.1840545 1.65347132 -44.71059288 6.15427172 -41 10 C-40.0507552 10.94400578 -39.09889525 11.88538865 -38.14453125 12.82421875 C-35.74368624 15.19797383 -33.36454565 17.59017581 -31 20 C-25.49390285 15.51829301 -20.54323514 10.60006398 -15.62036133 5.49536133 C-10.48702479 0.2514488 -7.60740477 -1.90185119 0 0 Z M-57 46 C-59.44376016 49.77776571 -61.17399045 53.89272921 -63 58 C-63.41894531 58.92425781 -63.83789062 59.84851563 -64.26953125 60.80078125 C-67.04530724 67.17239686 -67.04530724 67.17239686 -67 74 C-65.5 76.5 -65.5 76.5 -63 78 C-58.64152179 78.54480978 -57.02686743 78.01343372 -53 76 C-51.68 81.61 -50.36 87.22 -49 93 C-50.28261719 93.21914062 -51.56523437 93.43828125 -52.88671875 93.6640625 C-60.21786746 95.13416774 -67.30763841 97.39314251 -74.43334961 99.63085938 C-76.82121667 100.37772636 -79.21401974 101.1070322 -81.60742188 101.8359375 C-83.14095651 102.31404212 -84.67417169 102.79317289 -86.20703125 103.2734375 C-87.26963921 103.59397598 -87.26963921 103.59397598 -88.35371399 103.92098999 C-92.61817087 105.28362338 -95.90970447 106.71740164 -99 110 C-100.79028217 115.17483022 -99.413572 119.59455682 -98.015625 124.6875 C-97.79936462 125.50822998 -97.58310425 126.32895996 -97.36029053 127.17456055 C-96.90185655 128.90403779 -96.43756273 130.63197113 -95.96777344 132.35839844 C-95.25327574 134.98794439 -94.55881037 137.62216861 -93.8671875 140.2578125 C-93.41784355 141.94302258 -92.96736015 143.62792933 -92.515625 145.3125 C-92.30923401 146.09391357 -92.10284302 146.87532715 -91.89019775 147.68041992 C-90.68763754 152.06537238 -89.30656124 156.0406334 -87 160 C-84.11138291 161.44430855 -82.20352299 161.37688506 -79 161 C-75.85641749 159.2739971 -75.85641749 159.2739971 -74 156 C-73.55107014 147.76894213 -76.51658805 139.24264555 -78.5625 131.375 C-78.89584679 130.07178437 -79.22853367 128.76839977 -79.56054688 127.46484375 C-80.36725 124.30817936 -81.18053237 121.15337017 -82 118 C-80.07607422 117.66935547 -80.07607422 117.66935547 -78.11328125 117.33203125 C-70.78846254 115.86190464 -63.69234841 113.6433342 -56.56665039 111.42407227 C-54.17959333 110.68505214 -51.78645482 109.96852593 -49.39257812 109.25195312 C-47.85895045 108.77741155 -46.32573165 108.30154614 -44.79296875 107.82421875 C-44.08456345 107.61568771 -43.37615814 107.40715668 -42.64628601 107.19230652 C-37.96321679 105.69644226 -35.09529269 103.82211656 -32 100 C-31.12898397 94.063916 -32.92825861 88.40432345 -34.4375 82.6875 C-34.66759766 81.78193359 -34.89769531 80.87636719 -35.13476562 79.94335938 C-36.2499242 75.35677678 -36.2499242 75.35677678 -38 71 C-36.39125 70.9071875 -36.39125 70.9071875 -34.75 70.8125 C-30.94017592 70.30387698 -30.94017592 70.30387698 -28.5 67.8125 C-26.81968088 65.10486324 -26.81968088 65.10486324 -26.75 62.125 C-28.65072284 57.3731929 -31.99718876 55.05460953 -36 52 C-36.92425781 51.278125 -37.84851563 50.55625 -38.80078125 49.8125 C-47.45366688 42.69471894 -47.45366688 42.69471894 -57 46 Z " fill="#00685B" transform="translate(225,56)"/>
<path d="M0 0 C1.46953125 -0.04350586 1.46953125 -0.04350586 2.96875 -0.08789062 C10.04526801 -0.15072856 10.04526801 -0.15072856 13.39453125 2.05078125 C15.62735577 5.77644522 15.39953788 9.10596896 14.75 13.3125 C13.02310955 16.60181514 12.3079199 17.1265267 8.75 18.3125 C7.26272892 18.48000835 5.77066143 18.60684838 4.27734375 18.70703125 C-17.86942557 20.34834915 -40.08731911 24.38101945 -59.25 36.3125 C-59.09402344 37.05113281 -58.93804687 37.78976563 -58.77734375 38.55078125 C-56.43738244 50.74647363 -57.19092135 60.91746213 -63.68359375 71.69140625 C-68.776354 78.90920316 -75.53157969 83.26488364 -83.5625 86.75 C-91.8091111 88.00795762 -100.37145763 88.31384947 -108.25 85.3125 C-119.73889232 102.20792989 -125.71673387 123.99002509 -126.41015625 144.33203125 C-126.43754883 145.0065332 -126.46494141 145.68103516 -126.49316406 146.37597656 C-126.55856884 148.26166072 -126.58710593 150.14851972 -126.61328125 152.03515625 C-127.43117832 156.24506814 -128.87937364 157.72931342 -132.25 160.3125 C-134.56640625 160.94140625 -134.56640625 160.94140625 -136.8125 160.875 C-137.55628906 160.87628906 -138.30007812 160.87757813 -139.06640625 160.87890625 C-142.32130997 160.03461101 -143.35437827 159.1263135 -145.25 156.3125 C-145.83152748 152.92988949 -145.76828653 149.61115719 -145.6875 146.1875 C-145.67356201 145.20628174 -145.65962402 144.22506348 -145.64526367 143.21411133 C-145.07065788 120.10073384 -138.61811588 96.15229081 -126.44140625 76.375 C-124.96037199 74.36291648 -124.96037199 74.36291648 -125.8125 72.0625 C-126.5240625 70.70125 -126.5240625 70.70125 -127.25 69.3125 C-132.28023406 58.72149939 -133.98395687 48.66914604 -130.25 37.3125 C-125.72045598 27.14239174 -119.36203069 20.1086614 -109.25 15.3125 C-99.05280643 11.84237489 -88.58173887 12.09352205 -78.6171875 16.14453125 C-76.25 17.3125 -76.25 17.3125 -73.90625 19.1640625 C-71.14106862 20.71918457 -71.14106862 20.71918457 -67.7890625 19.06640625 C-66.47406238 18.35466982 -65.16983773 17.62278962 -63.875 16.875 C-62.43588675 16.10507359 -60.99442437 15.33952382 -59.55078125 14.578125 C-58.82713379 14.19205078 -58.10348633 13.80597656 -57.35791016 13.40820312 C-39.76293061 4.26223738 -19.70619909 0.19758889 0 0 Z M-107.2890625 36.1875 C-112.10328951 41.5762644 -113.67165865 45.43411743 -113.59765625 52.67578125 C-112.8721297 58.17837028 -109.69522284 61.86727716 -105.875 65.6875 C-100.78019225 68.84142861 -96.01963018 69.82495299 -90.16796875 68.8515625 C-84.82415119 67.34963414 -81.2995672 63.77793769 -78.25 59.3125 C-75.99468471 55.14016672 -75.56244826 50.97066301 -76.25 46.3125 C-78.15782727 40.43725922 -81.14849194 36.71350537 -86.25 33.3125 C-93.86082575 30.55685619 -101.10335256 30.49949086 -107.2890625 36.1875 Z " fill="#00685B" transform="translate(145.25,-0.3125)"/>
<path d="M0 0 C0.74378906 -0.00128906 1.48757813 -0.00257813 2.25390625 -0.00390625 C5.50880997 0.84038899 6.54187827 1.7486865 8.4375 4.5625 C9.01902748 7.94511051 8.95578653 11.26384281 8.875 14.6875 C8.86106201 15.66871826 8.84712402 16.64993652 8.83276367 17.66088867 C8.25815788 40.77426616 1.80561588 64.72270919 -10.37109375 84.5 C-11.85212801 86.51208352 -11.85212801 86.51208352 -11 88.8125 C-10.525625 89.72 -10.05125 90.6275 -9.5625 91.5625 C-4.53226594 102.15350061 -2.82854313 112.20585396 -6.5625 123.5625 C-11.41384937 134.45515236 -18.54388961 141.8967317 -29.625 146.375 C-40.00633886 149.49478059 -50.93078352 148.31478255 -60.5625 143.5625 C-61.3359375 142.95148438 -62.109375 142.34046875 -62.90625 141.7109375 C-65.67143138 140.15581543 -65.67143138 140.15581543 -69.0234375 141.80859375 C-70.33855803 142.52010768 -71.64279086 143.25198777 -72.9375 144 C-74.36997364 144.76885293 -75.80493196 145.53309239 -77.2421875 146.29296875 C-77.9650293 146.67888184 -78.68787109 147.06479492 -79.43261719 147.46240234 C-89.94587953 152.89256742 -101.05060602 156.10914555 -112.5625 158.5625 C-113.59375 158.789375 -114.625 159.01625 -115.6875 159.25 C-122.7988014 160.58336901 -129.90826889 160.82278148 -137.125 160.9375 C-138.09002441 160.96360352 -139.05504883 160.98970703 -140.04931641 161.01660156 C-146.85664872 161.03341869 -146.85664872 161.03341869 -150.1796875 158.81640625 C-151.69007304 156.35456315 -152.12997603 154.99616845 -152.125 152.125 C-152.14691406 151.38378906 -152.16882813 150.64257812 -152.19140625 149.87890625 C-151.18253763 146.16301126 -149.67236713 144.82704165 -146.5625 142.5625 C-143.02006138 141.75676141 -139.49727252 141.64076572 -135.875 141.5 C-114.77156087 140.1634544 -96.258951 134.42217857 -77.5625 124.5625 C-77.71847656 123.82386719 -77.87445313 123.08523438 -78.03515625 122.32421875 C-80.37511756 110.12852637 -79.62157865 99.95753787 -73.12890625 89.18359375 C-67.35315589 80.99781807 -59.31410601 75.7773427 -49.5625 73.5625 C-45.80859375 73.296875 -45.80859375 73.296875 -42 73.3125 C-40.74058594 73.30734375 -39.48117187 73.3021875 -38.18359375 73.296875 C-34.64017435 73.55680221 -31.86075212 74.28182275 -28.5625 75.5625 C-17.07360768 58.66707011 -11.09576613 36.88497491 -10.40234375 16.54296875 C-10.37495117 15.8684668 -10.34755859 15.19396484 -10.31933594 14.49902344 C-10.25393116 12.61333928 -10.22539407 10.72648028 -10.19921875 8.83984375 C-9.13128648 3.34294085 -5.7501383 -0.17000409 0 0 Z M-55.9375 97.9375 C-59.5154649 102.59468801 -61.0565809 106.4304451 -60.875 112.4453125 C-60.09228043 117.74823758 -57.49270656 121.54370234 -53.9375 125.4375 C-48.91145887 128.60204442 -44.12260633 129.96837531 -38.1640625 129.2890625 C-31.89427633 127.64137125 -28.14354536 123.84880505 -24.5625 118.5625 C-22.89368283 113.5560485 -22.46615124 108.23285985 -24.50390625 103.26953125 C-27.57267103 98.14209668 -30.97298773 94.64146344 -36.5625 92.3125 C-44.05088181 90.44040455 -50.73144098 92.09500345 -55.9375 97.9375 Z " fill="#00685B" transform="translate(311.5625,159.4375)"/>
</svg>
